<svg width="21" height="18" viewBox="0 0 21 18" fill="none" xmlns="http://www.w3.org/2000/svg">
<path id="Path" d="M20.6666 2.79752C19.9308 3.12419 19.14 3.34419 18.31 3.44335C19.1575 2.93585 19.8083 2.13169 20.1141 1.17335C19.3216 1.64335 18.4433 1.98502 17.5083 2.16919C16.7608 1.37169 15.6933 0.873352 14.5133 0.873352C11.8641 0.873352 9.91746 3.34502 10.5158 5.91085C7.10663 5.74002 4.08329 4.10669 2.05913 1.62419C0.984126 3.46835 1.50163 5.88085 3.32829 7.10252C2.65663 7.08085 2.02329 6.89669 1.47079 6.58919C1.42579 8.49002 2.78829 10.2684 4.76163 10.6642C4.18413 10.8209 3.55163 10.8575 2.90829 10.7342C3.42996 12.3642 4.94496 13.55 6.74163 13.5834C5.01663 14.9359 2.84329 15.54 0.666626 15.2834C2.48246 16.4475 4.63996 17.1267 6.95663 17.1267C14.575 17.1267 18.8791 10.6925 18.6191 4.92169C19.4208 4.34252 20.1166 3.62002 20.6666 2.79752Z" fill="#D11E2B"/>
</svg>
